M48
;FILE_FORMAT=2:4
INCH,LZ
FMAT,2
ICI,OFF
;TYPE=PLATED
T1C.00394
T2C.016
;TYPE=NON_PLATED
T3C.032
%
M72
G90
G93X0Y0
T1C.00394F0S0
X196894Y200599
X196894Y201426
X196894Y201151
X196894Y199773
X196894Y200875
X196894Y200048
X196894Y200324
X197229Y200462
X197229Y200737
X197229Y200186
X197229Y201013
X197229Y201288
X197229Y201564
X197236Y19991
X197609Y201426
X197609Y200875
X197609Y200599
X197609Y200324
X197609Y201165
X197609Y200048
X197944Y201013
X197944Y201288
X197944Y201564
X197944Y200737
X197944Y200462
X197944Y200186
X197944Y19991
X199275Y20125
X199275Y2015
X199275Y20025
X199525Y2005
X199525Y201
X199525Y20075
X199525Y2
X199825Y2015
X199825Y2005
X199825Y20075
X199825Y20125
X199825Y201
X199825Y2
X199825Y20025
X200125Y201
X200125Y2005
X200125Y20125
X200125Y2015
X200125Y2
X200125Y20075
X200125Y20025
X200175Y199375
X200203Y199598
X200125Y202
X200125Y20225
X200125Y20175
X199825Y20175
X199825Y202
X199825Y20225
X199525Y202
X199275Y20175
X197944Y20184
X197609Y201702
X197539Y202439
X197229Y20184
X19701Y202408
X196894Y201702
T2C.016F095S3
X20066Y200713
X20066Y201362
T3C.032F197S55
X20066Y199125
X20066Y202625
M30
